<svg width="144" height="97" viewBox="0 0 144 97" fill="none" xmlns="http://www.w3.org/2000/svg">
<path d="M71.0051 43.76C67.486 44.2592 65.5332 44.2838 62.0985 43.76C61.6414 44.0029 61.4089 44.1756 61.0628 44.5935C65.255 46.4865 67.6523 46.6023 72.0407 44.5935C71.7616 44.1563 71.5373 43.9702 71.0051 43.76Z" fill="#03071E"/>
<path d="M51.5348 2.60476C51.8455 2.46346 51.8455 1.66705 51.5348 1.35447C51.2241 1.0419 50.0936 0.833523 49.3599 1.35447C43.7645 5.32782 42.195 7.72467 42.1104 12.2945C45.0754 6.68826 47.1498 4.59895 51.5348 2.60476Z" fill="#03071E"/>
<path d="M82.1044 2.68401C81.8045 2.54539 81.8045 1.76405 82.1044 1.4574C82.4042 1.15075 83.4954 0.946309 84.2034 1.4574C89.6039 5.35552 91.1186 7.707 91.2003 12.1903C88.3387 6.6902 86.3365 4.64045 82.1044 2.68401Z" fill="#03071E"/>
<path d="M58.4737 3.75085C61.8226 2.96243 63.6179 2.16035 66.6553 0L66.5518 42.5097C64.57 42.6096 63.2377 41.8845 61.4771 42.5097C60.445 42.9343 59.9461 43.2886 59.3022 44.2809C60.6622 46.9985 62.1328 47.8796 65.5161 48.7611V49.4904C60.8846 51.3715 58.5945 50.6498 54.9525 46.7815C55.1137 38.5492 56.1458 34.813 62.0985 31.9864C61.6971 30.0011 61.5477 28.6919 61.4771 25.8392C58.5655 24.0429 57.1387 22.8551 54.9525 20.4213C51.685 25.2564 50.1674 28.2104 48.2207 34.0702C49.3276 36.2637 50.1923 37.3824 51.9491 39.2798C53.2433 40.5918 53.3069 41.9575 52.8812 44.906C52.4239 47.8496 53.1865 49.2563 55.781 51.47C47.6475 47.5962 43.2178 44.5309 36 34.3828C36.6136 27.1713 38.1842 23.0568 42.5246 15.6286C43.311 16.461 43.8694 16.5283 45.0102 16.1495L53.5025 12.8154C55.9613 11.5337 55.4573 11.0075 52.1562 10.3148C59.5129 8.02079 61.1759 6.59901 58.4737 3.75085Z" fill="#03071E"/>
<path d="M74.6782 3.83986C71.3519 3.05462 69.6723 2.1516 66.6553 0L66.5518 42.5097C68.5201 42.6092 69.9464 41.8191 71.6951 42.4418C72.7202 42.8647 73.2157 43.2175 73.8552 44.2058C72.5044 46.9124 71.0438 47.79 67.6833 48.6679V49.3942C72.2835 51.2677 74.5581 50.549 78.1756 46.6963C78.0155 38.4973 76.9903 34.7762 71.0779 31.9611C71.4766 29.9839 71.625 28.6799 71.6951 25.8388C74.587 24.0497 76.0041 22.8667 78.1756 20.4428C81.421 25.2584 82.9284 28.2003 84.8619 34.0365C83.7624 36.2211 82.9036 37.3352 81.1587 39.2249C79.8732 40.5316 79.81 41.8919 80.2329 44.8284C80.6871 47.7601 79.9296 49.1611 77.3527 51.3658C85.4312 47.5077 89.8309 44.4548 97 34.3478C96.3905 27.1654 94.8305 23.0676 90.5195 15.6695C89.7384 16.4985 89.1838 16.5656 88.0507 16.1883L79.6157 12.8677C77.1736 11.5911 77.6742 11.0671 80.953 10.3773C73.6459 8.09251 71.9942 6.67648 74.6782 3.83986Z" fill="#03071E"/>
<path d="M59.9236 31.0487C58.5772 29.2775 57.1273 29.3817 56.4024 30.9445C57.1273 32.0906 58.5772 32.5074 59.9236 31.0487Z" fill="#03071E"/>
<path d="M73.18 31.0289C74.6055 29.2138 76.1407 29.3205 76.9083 30.9222C76.1407 32.0967 74.6055 32.5238 73.18 31.0289Z" fill="#03071E"/>
<path d="M62.5127 52.3036C65.6208 50.6604 67.3877 50.5931 70.5908 52.3036C67.0854 54.8289 65.3826 54.2858 62.5127 52.3036Z" fill="#03071E"/>
<path d="M0 96.1734V75H8.40887C9.69944 75 10.8489 75.2621 11.8571 75.7864C12.8855 76.2906 13.6821 77.0165 14.2467 77.9643C14.8315 78.8919 15.1239 80.011 15.1239 81.3218V81.715C15.1239 83.0257 14.8214 84.155 14.2164 85.1027C13.6316 86.0505 12.8351 86.7764 11.8269 87.2806C10.8186 87.7847 9.67927 88.0368 8.40887 88.0368H3.26675V96.1734H0ZM3.26675 85.0725H8.07614C9.22556 85.0725 10.1431 84.77 10.8287 84.1651C11.5143 83.5601 11.8571 82.7333 11.8571 81.6847V81.3823C11.8571 80.3135 11.5143 79.4767 10.8287 78.8717C10.1431 78.2668 9.22556 77.9643 8.07614 77.9643H3.26675V85.0725Z" fill="black"/>
<path d="M18.3162 96.1734V81.2613H21.3712V83.0156H21.8552C22.0971 82.3905 22.4803 81.9368 23.0046 81.6545C23.549 81.352 24.2145 81.2008 25.0009 81.2008H26.7855V84.0138H24.8799C23.8717 84.0138 23.0449 84.2961 22.3996 84.8608C21.7543 85.4052 21.4317 86.2522 21.4317 87.4016V96.1734H18.3162Z" fill="black"/>
<path d="M36.4691 96.5969C34.9768 96.5969 33.646 96.2944 32.4764 95.6894C31.327 95.0643 30.4195 94.1771 29.7541 93.0276C29.0886 91.8782 28.7559 90.5171 28.7559 88.9442V88.4905C28.7559 86.9176 29.0886 85.5665 29.7541 84.4373C30.4195 83.2879 31.327 82.4006 32.4764 81.7755C33.646 81.1504 34.9768 80.8378 36.4691 80.8378C37.9613 80.8378 39.2922 81.1504 40.4618 81.7755C41.6314 82.4006 42.5489 83.2879 43.2143 84.4373C43.8798 85.5665 44.2125 86.9176 44.2125 88.4905V88.9442C44.2125 90.5171 43.8798 91.8782 43.2143 93.0276C42.5489 94.1771 41.6314 95.0643 40.4618 95.6894C39.2922 96.2944 37.9613 96.5969 36.4691 96.5969ZM36.4691 93.8141C37.8403 93.8141 38.9494 93.3805 39.7963 92.5134C40.6634 91.6262 41.097 90.4062 41.097 88.8535V88.5812C41.097 87.0285 40.6735 85.8186 39.8266 84.9515C38.9796 84.0642 37.8605 83.6206 36.4691 83.6206C35.118 83.6206 34.0089 84.0642 33.1418 84.9515C32.2949 85.8186 31.8714 87.0285 31.8714 88.5812V88.8535C31.8714 90.4062 32.2949 91.6262 33.1418 92.5134C34.0089 93.3805 35.118 93.8141 36.4691 93.8141Z" fill="black"/>
<path d="M53.1554 96.1734C52.248 96.1734 51.522 95.9012 50.9776 95.3567C50.4533 94.8123 50.1911 94.0863 50.1911 93.1789V83.8928H46.0774V81.2613H50.1911V76.3309H53.3067V81.2613H57.7531V83.8928H53.3067V92.6344C53.3067 93.2394 53.589 93.5419 54.1536 93.5419H57.2691V96.1734H53.1554Z" fill="black"/>
<path d="M67.7176 96.5969C66.2052 96.5969 64.8844 96.2843 63.7551 95.6592C62.6259 95.0139 61.7386 94.1166 61.0933 92.9672C60.4682 91.7976 60.1556 90.4465 60.1556 88.914V88.551C60.1556 86.9983 60.4682 85.6472 61.0933 84.4978C61.7184 83.3282 62.5855 82.4309 63.6946 81.8057C64.8239 81.1605 66.1245 80.8378 67.5966 80.8378C69.0283 80.8378 70.2785 81.1605 71.3473 81.8057C72.4362 82.4309 73.2832 83.308 73.8881 84.4373C74.4931 85.5665 74.7955 86.8874 74.7955 88.3997V89.5794H63.3316C63.372 90.8901 63.8055 91.9387 64.6323 92.7252C65.4792 93.4914 66.5278 93.8746 67.7781 93.8746C68.9476 93.8746 69.8248 93.6124 70.4096 93.0881C71.0146 92.5638 71.4784 91.9589 71.801 91.2733L74.3721 92.6042C74.0898 93.1688 73.6764 93.7637 73.1319 94.3888C72.6076 95.0139 71.9119 95.5382 71.0448 95.9617C70.1777 96.3851 69.0686 96.5969 67.7176 96.5969ZM63.3619 87.1898H71.6195C71.5389 86.0606 71.1356 85.1834 70.4096 84.5583C69.6837 83.913 68.7359 83.5904 67.5663 83.5904C66.3968 83.5904 65.4389 83.913 64.6928 84.5583C63.9669 85.1834 63.5232 86.0606 63.3619 87.1898Z" fill="black"/>
<path d="M85.4725 96.5969C84.0408 96.5969 82.7401 96.2944 81.5706 95.6894C80.4211 95.0845 79.5036 94.2073 78.818 93.0579C78.1526 91.9085 77.8198 90.5272 77.8198 88.914V88.5207C77.8198 86.9075 78.1526 85.5363 78.818 84.407C79.5036 83.2576 80.4211 82.3804 81.5706 81.7755C82.7401 81.1504 84.0408 80.8378 85.4725 80.8378C86.9042 80.8378 88.1242 81.1 89.1325 81.6243C90.1407 82.1485 90.9473 82.8442 91.5523 83.7113C92.1774 84.5784 92.5807 85.5363 92.7622 86.5849L89.7374 87.2201C89.6366 86.5546 89.4249 85.9497 89.1022 85.4052C88.7796 84.8608 88.3259 84.4272 87.7411 84.1046C87.1563 83.7819 86.4203 83.6206 85.533 83.6206C84.6659 83.6206 83.8795 83.8223 83.1737 84.2256C82.4881 84.6087 81.9436 85.1733 81.5403 85.9194C81.137 86.6454 80.9354 87.5326 80.9354 88.5812V88.8535C80.9354 89.902 81.137 90.7994 81.5403 91.5455C81.9436 92.2916 82.4881 92.8562 83.1737 93.2394C83.8795 93.6225 84.6659 93.8141 85.533 93.8141C86.8437 93.8141 87.8419 93.4814 88.5275 92.8159C89.2132 92.1303 89.6467 91.2632 89.8282 90.2146L92.853 90.9103C92.611 91.9387 92.1774 92.8865 91.5523 93.7536C90.9473 94.6207 90.1407 95.3164 89.1325 95.8407C88.1242 96.3448 86.9042 96.5969 85.4725 96.5969Z" fill="black"/>
<path d="M101.51 96.1734C100.603 96.1734 99.877 95.9012 99.3326 95.3567C98.8083 94.8123 98.5462 94.0863 98.5462 93.1789V83.8928H94.4325V81.2613H98.5462V76.3309H101.662V81.2613H106.108V83.8928H101.662V92.6344C101.662 93.2394 101.944 93.5419 102.509 93.5419H105.624V96.1734H101.51Z" fill="black"/>
<path d="M109.466 96.1734V75H123.077V78.6297H113.459V83.6811H122.23V87.3108H113.459V92.5437H123.259V96.1734H109.466Z" fill="#F48C06"/>
<path d="M125.609 96.1734V92.6647H128.392V78.5087H125.609V75H134.321C137.164 75 139.322 75.7259 140.794 77.1778C142.286 78.6096 143.032 80.7471 143.032 83.5904V87.5831C143.032 90.4263 142.286 92.5739 140.794 94.0258C139.322 95.4575 137.164 96.1734 134.321 96.1734H125.609ZM132.385 92.5437H134.381C135.994 92.5437 137.174 92.1202 137.92 91.2733C138.666 90.4263 139.039 89.2366 139.039 87.704V83.4694C139.039 81.9166 138.666 80.7269 137.92 79.9001C137.174 79.0532 135.994 78.6297 134.381 78.6297H132.385V92.5437Z" fill="#F48C06"/>
</svg>
